Coordinates
version=1
nRows=16
nColumns=36
inDegrees=yes

Units are S.I. units (second, meters, Newtons, ...)
If the header above contains a line with 'inDegrees', this indicates whether rotational values are in degrees (yes) or radians (no).

endheader
time	pelvis_tilt	pelvis_list	pelvis_rotation	pelvis_tx	pelvis_ty	pelvis_tz	hip_flexion_r	hip_adduction_r	hip_rotation_r	knee_angle_r	knee_angle_r_beta	ankle_angle_r	subtalar_angle_r	mtp_angle_r	hip_flexion_l	hip_adduction_l	hip_rotation_l	knee_angle_l	knee_angle_l_beta	ankle_angle_l	subtalar_angle_l	mtp_angle_l	lumbar_extension	lumbar_bending	lumbar_rotation	arm_flex_r	arm_add_r	arm_rot_r	elbow_flex_r	pro_sup_r	arm_flex_l	arm_add_l	arm_rot_l	elbow_flex_l	pro_sup_l
      1.06000000	      0.01234891	      1.20482310	      0.07312452	      1.13017489	      0.89640971	     -0.31074811	     25.82734544	     -4.25368044	     -8.95294699	     16.05410918	      0.28019706	      1.26811812	    -13.90590393	     -7.27599541	    -12.52954776	      3.94641644	     -9.15735730	      3.62729927	      0.06330832	     15.36714824	     16.80725250	     -7.27599541	    -13.11840986	     -7.83888742	    -12.52538588	      0.88040213	     -4.42704772	      0.52171976	     30.87560809	     93.64276727	     12.78070600	    -15.04513982	     14.65457292	     37.56582608	     93.20383135
      1.07000000	     -0.16129818	      1.13246170	     -0.04690047	      1.14199904	      0.89420842	     -0.31060673	     25.86503392	     -3.85528824	     -8.99576114	     13.45858424	      0.23489661	      2.19065971	    -12.03437694	     -7.28651841	    -13.14500729	      3.88779568	     -9.12153359	      3.78485074	      0.06605811	     15.69545902	     16.74576630	     -7.28651841	    -12.72135726	     -7.40843932	    -12.46055382	      0.87714359	     -4.27877015	     -0.28172804	     30.64345966	     93.37743031	     12.67713526	    -14.96578004	     14.85187066	     37.59954373	     93.59482729
      1.08000000	     -0.50497898	      1.11702087	     -0.11425237	      1.15382750	      0.89180881	     -0.31029576	     26.08039020	     -3.46123692	     -8.63206011	     11.03455637	      0.19258934	      2.69277796	    -11.06988373	     -7.28840579	    -13.51003316	      3.84611830	     -9.09667701	      4.04036731	      0.07051771	     15.90320589	     16.65069958	     -7.28840579	    -12.15423199	     -7.07173659	    -12.45109178	      0.87110386	     -4.18849812	     -0.54273044	     30.38616495	     93.29154817	     12.55130661	    -14.90603264	     14.92550579	     37.64257650	     93.66933679
      1.09000000	     -0.41425750	      0.97628260	     -0.10064509	      1.16585896	      0.89005083	     -0.31011000	     25.74689656	     -3.02458771	     -8.48199025	      8.79047764	      0.15342278	      3.55472561	     -9.21304807	     -7.29528566	    -14.34358322	      3.63283563	     -9.24499756	      4.33392492	      0.07564126	     16.29731069	     16.82786070	     -7.29528566	    -12.13620970	     -6.55941717	    -12.47021924	      0.99619823	     -3.98544530	     -1.38909300	     30.02419934	     92.96676018	     12.51762762	    -14.78167629	     14.96337934	     37.53046045	     93.87455592
      1.10000000	     -0.65393444	      0.92356976	     -0.00615198	      1.17805217	      0.88788524	     -0.30990769	     25.82257526	     -2.67650072	     -7.82695685	      6.95233832	      0.12134119	      4.13889693	     -8.27767285	     -7.29752189	    -14.74594241	      3.46795239	     -9.21080014	      4.76543090	      0.08317246	     16.38067409	     16.90004995	     -7.29752189	    -11.70464846	     -6.14927861	    -12.64976199	      1.00072762	     -3.87431798	     -1.71436591	     29.87094980	     92.82990983	     12.32175033	    -14.69251785	     15.00145110	     37.35370700	     93.92202792
      1.11000000	     -0.80489179	      0.87149793	      0.21637737	      1.19043489	      0.88591748	     -0.30982692	     25.79167841	     -2.41405059	     -7.21780425	      5.46619033	      0.09540302	      4.74253740	     -7.62060783	     -7.29897806	    -15.20838785	      3.25501320	     -9.18590250	      5.24034864	      0.09146134	     16.40910431	     17.01098747	     -7.29897806	    -11.40072167	     -5.71498685	    -12.83513691	      0.97970175	     -3.75888467	     -2.01942914	     29.66040993	     92.69831589	     12.17976281	    -14.53085713	     15.00788564	     37.16132225	     93.93770485
      1.12000000	     -0.62770849	      0.70635605	      0.43636302	      1.20304542	      0.88444276	     -0.30972483	     25.41692581	     -2.07399040	     -6.60656794	      4.45473610	      0.07774981	      5.64047462	     -6.21492859	     -7.31104417	    -15.92509533	      2.81988833	     -9.91965150	      5.94674979	      0.10379036	     16.84612532	     18.41580334	     -7.31104417	    -11.50524520	     -5.10913781	    -12.94918146	      0.99242544	     -3.48770456	     -3.50759831	     29.70590693	     91.73153328	     12.18796318	    -14.23331017	     14.89213342	     36.61799461	     94.09975825
      1.13000000	     -0.67472634	      0.60705014	      0.77041132	      1.21581573	      0.88273807	     -0.30968949	     25.30164980	     -1.83777373	     -5.61768447	      3.88174561	      0.06774924	      6.20496010	     -5.97899486	     -7.31283140	    -16.39536565	      2.47476839	     -9.87689471	      6.63129887	      0.11573800	     16.76342781	     18.46900577	     -7.31283140	    -11.32824654	     -4.58540649	    -13.26518367	      1.01920483	     -3.40338126	     -3.70489275	     29.52960488	     91.56902906	     11.97716560	    -14.04386144	     14.89939201	     36.27729017	     94.08706239
      1.14000000	     -0.64106197	      0.46260035	      1.11526662	      1.22877493	      0.88119343	     -0.30963562	     25.17676083	     -1.57917926	     -4.62849301	      3.88457794	      0.06779868	      6.56620294	     -5.86062413	     -7.31393549	    -16.93929344	      2.06339491	     -9.77296405	      7.33779476	      0.12806868	     16.61393122	     18.61294043	     -7.31393549	    -11.25259701	     -3.98471237	    -13.54853187	      1.06207639	     -3.36108833	     -3.91540817	     29.38269200	     91.43750956	     11.76186044	    -13.81381698	     14.87646716	     35.93719926	     94.05728148
      1.15000000	     -0.57749274	      0.28723782	      1.46255162	      1.24209871	      0.87969917	     -0.30945097	     24.85917513	     -1.23226328	     -3.13605397	      3.95717666	      0.06906576	      6.81249422	     -6.58248207	     -7.32444561	    -17.31880022	      1.45823315	    -10.79181348	      8.48839118	      0.14815037	     16.91821337	     20.22549628	     -7.32444561	    -11.13634854	     -3.35719587	    -13.70240103	      1.01999743	     -3.14165097	     -5.19012001	     29.31738688	     90.32559422	     11.64662641	    -13.34779142	     14.48076051	     35.10921051	     93.96469039
      1.16000000	     -0.48304846	      0.09564322	      1.87037083	      1.25564417	      0.87831965	     -0.30934345	     24.62701966	     -0.92439548	     -2.17716393	      4.61717981	      0.08058499	      6.90141641	     -6.55443986	     -7.32520621	    -17.90473560	      0.95292660	    -10.54575589	      9.25931948	      0.16160561	     16.60938192	     20.27120480	     -7.32520621	    -11.08927198	     -2.67345664	    -13.98538462	      0.98230325	     -3.16892435	     -5.29204339	     29.22347977	     90.24324536	     11.30973278	    -13.10316138	     14.51897705	     34.83429285	     93.93864920
      1.17000000	     -0.34868994	     -0.12435945	      2.29322686	      1.26941247	      0.87704376	     -0.30912256	     24.32038246	     -0.55336617	     -1.18729324	      5.49406472	      0.09588952	      6.91801699	     -6.63932682	     -7.32589380	    -18.44852594	      0.37054704	    -10.37013458	     10.18899574	      0.17783152	     16.22078950	     20.31229236	     -7.32589380	    -11.04256921	     -1.96110299	    -14.28339645	      1.00203762	     -3.20596453	     -5.45341715	     29.09570436	     90.15486169	     10.94755632	    -12.83533901	     14.50168210	     34.43326020	     93.89045353
      1.18000000	     -0.35480571	     -0.37177344	      2.65072277	      1.28341476	      0.87554734	     -0.30856148	     24.07294241	     -0.01044794	      0.43093660	      6.31832902	      0.11027564	      5.66520430	     -9.18896773	     -7.33781714	    -18.56285418	     -0.43332833	    -11.53420214	     11.73279384	      0.20477588	     16.02998196	     21.50074387	     -7.33781714	    -10.75639299	     -1.26122363	    -14.38633548	      0.92688240	     -3.04755068	     -6.64682047	     28.96216375	     89.06034378	     10.71055835	    -12.28142754	     13.92061753	     33.43301762	     93.60180870
      1.19000000	     -0.28348555	     -0.62783972	      3.04184643	      1.29766089	      0.87429546	     -0.30805920	     23.78174962	      0.48962211	      1.34498711	      7.33400421	      0.12800252	      4.33493903	    -10.42766480	     -7.35031205	    -18.89735538	     -1.13588330	    -11.66415237	     12.94837059	      0.22599170	     15.35206639	     21.60493596	     -7.35031205	    -10.56127903	     -0.52374682	    -14.56614974	      0.88859332	     -3.07433606	     -6.95093004	     28.79634540	     88.27399274	     10.32939627	    -11.89766869	     13.76633123	     32.78273231	     93.34274976
      1.20000000	     -0.14141309	     -0.88635678	      3.45899497	      1.31213665	      0.87327370	     -0.30755034	     23.47098450	      0.93657289	      1.53161490	      8.52286503	      0.14875206	      3.35495240	    -10.64298412	     -7.35202854	    -19.24113400	     -1.85950578	    -11.69356761	     14.25724528	      0.24883587	     14.40276525	     21.40922899	     -7.35202854	    -10.42305232	      0.23218746	    -14.77516746	      0.86265908	     -3.13387641	     -7.10445631	     28.56576133	     88.15325731	      9.88636205	    -11.54844068	     13.67700423	     32.19289792	     93.23699519
      1.21000000	     -0.14700681	     -1.16418337	      3.72676317	      1.32669192	      0.87222412	     -0.30667077	     23.20743391	      1.52742504	      2.38681916	      9.46118060	      0.16512875	      0.95472346	    -12.82073165	     -7.36039306	    -19.32879931	     -2.58157904	    -11.77779988	     15.76178243	      0.27509500	     13.42415262	     21.35695284	     -7.36039306	    -10.06431558	      0.95360420	    -14.76167275	      0.80185481	     -3.15433591	     -7.50269913	     28.26769769	     87.65450638	      9.54780484	    -11.04963166	     13.25066602	     31.21285786	     92.85136842
